<mxfile host="app.diagrams.net" modified="2023-11-01T15:55:56.792Z" agent="Mozilla/5.0 (Windows NT 10.0; Win64; x64) AppleWebKit/537.36 (KHTML, like Gecko) Chrome/118.0.0.0 Safari/537.36" version="22.0.8" etag="ssHws8Upa8Wm3B5DXATM" type="gitlab">
  <diagram name="Page-1" id="tQoxE69fi3CwHSr0Okvu">
    <mxGraphModel>
      <root>
        <mxCell id="0" />
        <mxCell id="1" parent="0" />
      </root>
    </mxGraphModel>
  </diagram>
</mxfile>
